<?xml version="1.0" encoding="utf-8"?>
<!-- Generator: Adobe Illustrator 23.0.3, SVG Export Plug-In . SVG Version: 6.00 Build 0)  -->
<svg version="1.1" xmlns="http://www.w3.org/2000/svg" xmlns:xlink="http://www.w3.org/1999/xlink" x="0px" y="0px"
	 viewBox="0 0 1024 512" style="enable-background:new 0 0 1024 512;" xml:space="preserve">
<style type="text/css">
	.st0{display:none;fill:#0170A5;}
	.st1{fill:#FFFFFF;}
	.st2{display:none;}
	.st3{display:inline;}
	.st4{fill:#3F3930;}
	.st5{fill:#C5471E;}
	.st6{fill:#F5F6F5;}
</style>
<g id="Main">
	<g>
		<path class="st0" d="M1015.1,127.2c-10.5,32.8-32.3,53.3-66.3,59.8c-18.8,3.6-38.1,3.6-55.2-5.7c-40.4-22-45.3-62.6-12-95.9
			c29.8-29.8,80.1-32.9,112.7-5.6c8.7,7.2,13.9,18.6,20.7,28C1015.1,114.2,1015.1,120.7,1015.1,127.2z M978.2,103
			c-0.2-14.7-13-23.5-28.3-19.6c-27.6,7.1-48.7,31.5-51.5,59.7c-2,19.7,10.5,30,29.8,26.1C950.7,164.7,975.4,134.2,978.2,103z"/>
		<path class="st0" d="M700.7,46.5c3.9,36-13.5,61.4-40.3,82.6c-13.7,10.9-26.3,23-42.4,37.2c30.5-5.5,56.6-10.9,79.1-30.7
			c0,12.2,0,23.2,0,34.7c-37.5,8.9-74.6,17.8-112.6,26.8c-1-30.2,2.7-56.4,29-75.5c17-12.4,31.7-28,47.4-42.2
			c-0.7-1.5-1.4-3-2.1-4.6c-23.1,8.6-46.2,17.3-69.8,26.1c0.9-7.2,1.2-16.4,3.7-24.9c1-3.3,7-6.1,11.2-7.2
			c29.4-7.8,58.9-15,88.4-22.5C695.1,46.5,697.9,46.5,700.7,46.5z"/>
		<path class="st1" d="M983.9,245.5c-21.5-5.5-42.9-12.1-64.7-16.3c-35.4-6.9-70.9-8.2-107.2-5.4c-105.8,8.3-201,48.9-295.7,92.1
			C436.4,352.3,356.6,389,276,423.7c-33.8,14.5-70.4,23.4-107.2,22.8c-72.3-1.2-136.1-36.7-154.3-122.2
			c-12.6-59.4-2.6-118.1,18.7-175c-1,8-2.2,16.1-2.9,24.2c-0.7,8.7-0.9,17.5-1.1,26.3c-1.2,48.5,2.2,96.1,33,136.6
			c21.8,28.7,52.4,41.3,87.5,43.8c46.2,3.3,89.4-9.4,131.4-26.3c66.8-27,133-55.8,199.7-83.1c67.5-27.7,135.7-53.7,207.7-67.1
			c93.4-17.3,185.2-15.7,272.8,27c8.1,3.9,15.7,8.9,23.5,13.4C984.5,244.6,984.2,245,983.9,245.5z"/>
		<path class="st0" d="M311.8,220.5c26.9,2.8,37.9,23.6,28.2,52.1c-8.7,25.5-26.6,41.4-52.5,48.3c-13,3.5-23.1-2.3-25.6-14
			c24.1,3.9,52.4-27.2,46.4-50.9c-2.4-9.4-12.5-12.7-20.8-5.2c-11.3,10.2-22.6,21.1-30.8,33.7c-4,6.1-1.6,16.9-0.7,25.4
			c2.5,23.2,2.8,23.2-19,32c-3.7,1.5-7.5,2.9-12.7,4.8c-1.7-12.5-3.4-24.1-4.8-35.8c-2.9-24.6-5.5-49.3-8.4-74
			c-1.1-9.6,0.6-16.2,11.3-19.9c17.3-5.9,33.9-13.6,50.9-20.5C301.5,185,310,190.1,311.8,220.5z M250.3,258.5c1,0.5,2,1,3,1.5
			c9.5-12.7,19-25.4,28.5-38.2c-1.2-1.5-2.3-3-3.5-4.6c-9.3,4-21.9,5.7-27,12.7C246.7,236.4,250.3,248.7,250.3,258.5z"/>
		<path class="st0" d="M443.9,200.2c22,30.7,40.2,44.5,61.9,47.9c-20.2,16.7-51.3,22.1-87.4-19.7c-12.7,6.8-14.9,17.2-11.3,30.5
			c0.8,3-2.6,9.2-5.7,11c-8.7,5-18.3,8.4-29.3,13.1c-1.6-9.9-3.4-19.1-4.6-28.3c-4-30-7.9-60-11.3-90c-0.3-2.7,3.3-7.4,6.2-8.6
			c26.1-11.1,52.2-22,78.6-32.2c18.7-7.1,30,1,31.6,21c1.4,17.7-3.9,32.6-16.7,44.9C452.2,193.3,448.2,196.4,443.9,200.2z M401,221
			c13.4-15,26-26.2,34.6-40c4.1-6.6,3.2-19.4-0.6-26.8c-4.7-9.2-13.4-0.4-20.3,1.6c-3.1,0.9-5.8,2.9-8.9,3.7
			c-6.7,1.9-9.4,5.3-8.6,12.9C399,187,399.6,201.7,401,221z"/>
		<path class="st1" d="M150.9,487c63.8-8.7,122.1-32.3,179.4-58.4c82.2-37.4,163.3-77.3,246.3-112.9c84-36,171.3-60,264.3-55.1
			c3.1,0.2,6.3,0,9.5,1.2c-24.8,3-49.8,5.2-74.4,9.3c-73.7,12.2-143,38.2-210.5,69.2c-73.6,33.8-146.5,69.3-220.4,102.4
			c-49.9,22.4-101.2,41.7-156.9,44.2C175.7,487.5,163.3,487,150.9,487z"/>
		<path class="st0" d="M713.9,165.8c3.3-10.8,6.7-19.3,8.4-28.2c2.4-12.5,10.1-20.3,20.2-26.6c19.8-12.3,39.7-24.4,62.1-38.2
			c-25-3.5-46.2,0.3-66.8,10.5c0.3-20.8,4.5-27.8,22.7-29.4c28.2-2.5,56.6-2.8,86.1-4.1c-3.6,26-13.9,45.9-36.4,58.8
			c-18.4,10.6-36.4,21.9-54.5,33c0.5,1.7,1,3.4,1.5,5.1c23.4-4.2,46.8-8.4,70.8-12.8c-1.5,6.6-3.6,16.3-6.1,27.4
			C786.3,162.8,751,164.3,713.9,165.8z"/>
		<path class="st1" d="M85.8,88.9c0,26.6-1.4,54.6,0.3,82.5c2.8,44.9,12.6,87.9,43.3,123.4c15.7,18.1,34.5,31.2,57.3,38.6
			c5.5,1.8,10.9,4.1,17.2,6.6c-25.3,2.9-72.7-11.5-97.4-31.1c-30.1-23.8-44-55.1-46-92.7c-2.3-43.1,9.4-83.5,23-123.6
			C84.2,90.5,85.9,88.8,85.8,88.9z"/>
		<path class="st0" d="M514.5,223.4c-2-20.4-4.2-38.6-5.6-56.9c-1.4-17.9-1.5-35.9-3.1-53.8c-0.9-10.4,2.2-16.5,12.8-18.7
			c7.6-1.6,14.9-4.5,23.5-7.2c1.9,26.6,3.7,52.3,5.6,77.9c0.8,11.5,1.6,23,2.8,34.4c0.9,8.5-1.3,13.8-10.7,15.8
			C531.9,216.5,524.3,220,514.5,223.4z"/>
		<path class="st1" d="M148.2,117.3c-12,53.7-16,102.5,27.1,142.6C120.9,237.2,102.9,182.2,148.2,117.3z"/>
	</g>
	<g class="st2">
		<path class="st3" d="M519.3,435l-19.4-33.7l12.3-7.1c3.8-2.2,7-3.1,9.9-2.9c2.8,0.2,4.9,1.6,6.4,4.1c1,1.8,1.4,3.8,0.9,5.8
			c-0.4,2.1-1.5,3.9-3.1,5.6l0.1,0.1c2.6-1.1,5-1.3,7.3-0.7c2.3,0.6,4,2,5.3,4.1c1.8,3.1,2.1,6.2,0.9,9.2c-1.2,3.1-3.7,5.7-7.5,7.9
			L519.3,435z M510.6,402.5l4.6,8l3.3-1.9c1.6-0.9,2.6-2,3-3.3c0.5-1.3,0.3-2.6-0.5-3.9c-1.4-2.5-4-2.6-7.7-0.5L510.6,402.5z
			 M518.5,416.2l5.1,8.9l4.1-2.4c1.8-1,2.9-2.2,3.4-3.6s0.4-2.8-0.4-4.2c-0.8-1.3-1.9-2.1-3.3-2.3c-1.4-0.2-3,0.2-4.8,1.2
			L518.5,416.2z"/>
		<path class="st3" d="M581.6,402l-8.6,4.2l-6.3-6.5l-12.4,6.1l1.4,9l-8.5,4.2l-4.5-41.1l9.3-4.6L581.6,402z M562,394.5l-9.5-9.9
			c-0.7-0.7-1.4-1.7-2.1-2.8l-0.2,0.1c0.4,1.1,0.7,2.2,0.9,3.3l2,13.7L562,394.5z"/>
		<path class="st3" d="M616.9,387l-9.3,3.9l-9.5-6.9c-0.7-0.5-1.4-1-2-1.4s-1.2-0.7-1.8-0.9c-0.6-0.2-1.1-0.4-1.6-0.4
			s-1,0.1-1.5,0.3l-2.2,0.9l5.8,13.7l-8.1,3.4l-15.2-35.8l12.8-5.4c8.7-3.7,14.4-2.3,17.2,4.2c0.5,1.2,0.8,2.5,0.9,3.7
			s-0.1,2.4-0.4,3.5c-0.3,1.1-0.9,2.2-1.6,3.3c-0.7,1-1.6,2-2.7,2.8v0.1c0.6-0.1,1.2,0,1.9,0.2s1.3,0.4,2,0.7c0.7,0.3,1.3,0.7,2,1
			c0.7,0.4,1.3,0.8,1.9,1.2L616.9,387z M582.3,366.6l4.2,10l3.5-1.5c1.7-0.7,2.9-1.8,3.5-3.3s0.6-2.9,0-4.4
			c-1.3-3.1-3.9-3.9-7.6-2.3L582.3,366.6z"/>
		<path class="st3" d="M646.3,364l-14,4.9l-2-5.7l14-4.9L646.3,364z"/>
		<path class="st3" d="M704.7,356.4c-3.1,3.1-7.3,5.4-12.8,6.9c-6,1.7-11.2,1.3-15.6-1.1c-4.4-2.4-7.4-6.5-9-12.4s-1-11.2,1.8-16
			s7.3-8,13.6-9.7c4-1.1,7.6-1.5,11-1.2l2.2,7.9c-3.4-0.9-7.1-0.7-11.3,0.4c-3.5,1-6,2.9-7.6,5.8s-1.9,6.2-0.8,10
			c1.1,3.9,2.9,6.6,5.4,8.1c2.6,1.6,5.5,1.9,8.9,1c2-0.6,3.5-1.3,4.6-2.2l-2-7.3l-7.5,2.1l-1.8-6.7l16-4.4L704.7,356.4z"/>
		<path class="st3" d="M745.5,350l-9.8,2.1l-8-8.5c-0.6-0.6-1.2-1.2-1.7-1.7s-1.1-0.9-1.6-1.2c-0.5-0.3-1-0.5-1.5-0.7
			c-0.5-0.1-1-0.1-1.5,0l-2.3,0.5l3.2,14.5l-8.6,1.9l-8.2-38l13.6-2.9c9.2-2,14.6,0.4,16.1,7.3c0.3,1.3,0.3,2.6,0.2,3.8
			c-0.2,1.2-0.5,2.3-1.1,3.4c-0.5,1.1-1.3,2-2.2,2.9s-2,1.6-3.2,2.3v0.1c0.6,0.1,1.2,0.2,1.8,0.5s1.2,0.6,1.8,1.1
			c0.6,0.4,1.2,0.9,1.8,1.4s1.1,1,1.6,1.5L745.5,350z M715.3,323.5l2.3,10.6l3.7-0.8c1.8-0.4,3.2-1.2,4.1-2.6
			c0.9-1.3,1.2-2.8,0.8-4.4c-0.7-3.3-3.1-4.6-7-3.7L715.3,323.5z"/>
		<path class="st3" d="M755.2,309l1.2,6.7l-3.2,0.6l4.4,24.9l3.2-0.6l1.2,6.7l-15,2.7l-1.2-6.7l3.2-0.6l-4.4-24.9l-3.2,0.6l-1.2-6.7
			L755.2,309z"/>
		<path class="st3" d="M791.4,343l-22.9,3.3l-5.5-38.5l8.7-1.2l4.5,31.5l14.3-2L791.4,343z"/>
		<path class="st3" d="M820.7,340l-23,2.3l-3.9-38.7l8.7-0.9l3.2,31.6l14.3-1.4L820.7,340z"/>
		<path class="st3" d="M857.1,326.3l-14.8,0.6l-0.2-6l14.8-0.6L857.1,326.3z"/>
		<path class="st3" d="M906.5,306.6l-13.7-0.3l-0.2,9.5l12.6,0.3l-0.2,7.1l-12.6-0.3l-0.3,15.1l-8.8-0.2l0.9-38.9l22.5,0.5
			L906.5,306.6z"/>
		<path class="st3" d="M927.4,300.6l-0.4,6.8l-3.2-0.2l-1.5,25.3l3.2,0.2l-0.4,6.8l-15.2-0.9l0.4-6.8l3.2,0.2l1.5-25.3l-3.2-0.2
			l0.4-6.8L927.4,300.6z"/>
		<path class="st3" d="M930.2,338.3l0.8-8.6c1.4,1.5,3.1,2.6,4.8,3.4c1.8,0.8,3.6,1.3,5.5,1.5c1.1,0.1,2.1,0.1,2.9,0
			c0.8-0.1,1.5-0.3,2.1-0.6c0.6-0.3,1-0.7,1.3-1.1c0.3-0.5,0.5-1,0.6-1.5c0.1-0.8-0.1-1.5-0.5-2.1s-0.9-1.2-1.6-1.8
			c-0.7-0.6-1.5-1.1-2.5-1.7s-2-1.1-3.2-1.7c-2.9-1.5-5-3.3-6.3-5.3s-1.8-4.2-1.6-6.8c0.2-2,0.8-3.7,1.7-5.1s2.2-2.5,3.6-3.3
			c1.5-0.8,3.2-1.3,5-1.6c1.9-0.3,3.8-0.3,5.9-0.1c2,0.2,3.8,0.5,5.3,0.9s2.9,0.9,4.2,1.5l-0.8,8.1c-0.6-0.5-1.3-1-2-1.4
			s-1.5-0.8-2.3-1.1c-0.8-0.3-1.6-0.5-2.4-0.7c-0.8-0.2-1.5-0.3-2.3-0.4c-1-0.1-1.9-0.1-2.7,0s-1.5,0.3-2.1,0.6
			c-0.6,0.3-1.1,0.7-1.4,1.1c-0.4,0.4-0.6,1-0.6,1.6c-0.1,0.6,0.1,1.2,0.3,1.8c0.3,0.5,0.7,1.1,1.3,1.6s1.3,1,2.2,1.6
			c0.9,0.5,1.8,1.1,2.9,1.6c1.5,0.8,2.8,1.6,4,2.5c1.2,0.8,2.1,1.8,2.9,2.8c0.8,1,1.4,2.1,1.7,3.3c0.4,1.2,0.5,2.6,0.3,4.2
			c-0.2,2.2-0.8,3.9-1.7,5.3c-1,1.4-2.2,2.5-3.7,3.2c-1.5,0.8-3.2,1.3-5.1,1.5c-1.9,0.2-3.9,0.2-6,0s-4.1-0.6-6-1.1
			C933.1,339.8,931.5,339.1,930.2,338.3z"/>
		<path class="st3" d="M997,347.9l-8.7-1.3l2.3-15.7l-15.9-2.4l-2.3,15.7l-8.7-1.3l5.7-38.5l8.7,1.3l-2.3,15.3l15.9,2.4l2.3-15.3
			l8.7,1.3L997,347.9z"/>
	</g>
	<g>
		<path class="st1" d="M490.2,253.1c-7.9,5.1-15.6,6.9-23.9,7.5c-18.8,1.5-33.2-7-46.1-19.3c-3.2-3.1-6.2-6.4-9.2-9.8
			c-2-2.3-4-2.9-6.5-0.7c-1,0.9-2.1,1.6-3.2,2.5c-5.9,4.9-10.8,9.8-7.5,18.8c1.6,4.3,1.3,9.4,1.3,14.2c0,1.5-1.3,3.8-2.6,4.4
			c-8.3,3.8-16.9,7.2-25.3,10.8c-2.5,1-4.2,1.1-4.6-2.3c-1.7-13.9-3.5-27.7-5.3-41.6c-1.5-11.1-3.3-22.1-4.7-33.2
			c-1.3-9.9-2.3-19.8-3.3-29.7c-0.1-1.2-0.1-2.4-0.2-3.6c-0.8-9-0.7-8.7,8-12.1c10.2-4,20.1-8.7,30.2-12.9
			c12.2-5.1,24.4-10.2,36.6-15.1c3.8-1.6,7.9-2.6,11.8-4c12.7-4.3,19.5,1.6,22.4,12.1c2.8,10.1,2.8,20.7,0,30.9
			c-2.2,8.2-7.5,14.8-13.1,21c-3.2,3.6-6.6,6.9-10.1,10.1c-2.6,2.3-2.6,4.5-0.6,7c10.7,12.9,21.5,25.7,35.4,35.2
			c4.7,3.2,10.3,5.1,15.5,7.6C486.6,251.7,488.1,252.2,490.2,253.1z M384.1,171.6c1.6,15.8,3.1,31.7,4.8,47.5
			c0.1,1.2,0.8,2.8,1.7,3.2c0.8,0.4,2.6-0.4,3.3-1.2c9.7-9.7,19.5-19.2,28.8-29.3c8.2-8.9,11.1-19.4,6.7-31.4
			c-2.2-6-9.1-10.5-14.3-8.3c-9.3,3.9-18.4,8.3-27.6,12.3C384.2,166,382.8,168.1,384.1,171.6z"/>
		<path class="st1" d="M252.7,311.1c10.6,4.4,19,0.4,26.3-5.6c11.8-9.7,19.2-22.3,21-37.6c0.7-5.5,1.1-11.2-3.7-15.8
			c-5.7-5.5-15.9-3.6-20.3,1c-10.2,10.6-20.2,21.5-30.5,32c-3.7,3.8-2.9,8.2-2.5,12.6c1.1,11.2,2.5,22.4,3.6,33.7
			c0.1,1.2-0.8,3.3-1.7,3.7c-7.9,3.7-16,7.2-24,10.6c-2.9,1.2-4.7,0.8-5-3c-1.7-17.8-3.5-35.5-5.6-53.2c-2.1-18.3-4.4-36.6-6.9-54.8
			c-1.4-10.1-0.6-7.7,6.5-10.9c15.4-6.9,31.1-13.1,46.7-19.5c6.6-2.7,13.3-4.9,19.9-7.5c7.2-2.8,13.6-1.3,19,3.7
			c5.7,5.3,5.5,12.3,4,19.2c-1.3,5.6-1,6.6,5,6.2c10.2-0.6,17.9,3.2,22.2,12.4c2.2,4.6,3.4,9.9,3.8,14.9c2,27.9-12.4,47.2-34.4,61.7
			c-8.3,5.5-17.9,7.8-28.1,6.8c-5.9-0.5-10.6-2.8-14.2-7.4C253.3,313.4,253.1,312.2,252.7,311.1z M236.6,236.3
			c0.7,9.6,1.2,17.5,1.9,25.3c0.1,1.1,1,3,1.7,3.1c1.2,0.2,2.9-0.4,3.8-1.3c2.5-2.4,4.8-4.9,6.9-7.6c6.5-8.5,13.2-16.9,19.3-25.7
			c1.4-2,1.5-6,0.4-8.2c-0.6-1.3-5-1.9-7.1-1.2c-7.3,2.5-14.3,5.7-21.4,8.5C238.1,230.9,236.2,233.7,236.6,236.3z"/>
		<path class="st1" d="M916.8,190.4c-21.8-1.1-41.8-6.1-56.1-24c-11.3-14.2-13.8-30.3-8.5-47.5c6.7-21.9,21.8-36.3,42.1-45.2
			c17.6-7.7,36.2-8.7,55-4.4c14.4,3.3,27,9.7,37.3,20.4c8,8.3,12.4,18.3,13.2,29.5c0.4,5-0.9,10.3-2.2,15.3
			c-4.7,18.2-16.1,31.7-31.5,41.8C951.2,186.2,934.3,189.8,916.8,190.4z M966.3,109.5c0.4-19.2-10.6-25.6-21.3-25.3
			c-7.8,0.2-15.3,2.5-22.6,6.1c-23,11.3-40.7,37.4-37.7,64.6c0.9,8.3,4.6,15.4,12.8,19.1c9.1,4.1,17.8,1.3,26.2-2.3
			c11.9-5.2,20-15,27.7-24.7C960.6,135.2,965.1,121.4,966.3,109.5z"/>
		<path class="st1" d="M579.3,106.1c0.2-2.6,0.2-4.3,0.4-6c0.8-6.5,1.7-13,2.3-19.5c0.3-3,1.2-4.3,4.4-5c10.3-2.3,20.4-5.1,30.6-7.5
			c9-2.1,18-3.9,26.9-6c10.1-2.4,20.2-5,30.3-7.5c4.3-1,8.5-2,13.2-3.2c0.1,0.4,0.6,1.3,0.5,2.2c-1,9.3-1.1,18.9-3.4,27.9
			c-1.9,7.5-5.7,14.6-9.7,21.3c-6.7,11-17.1,18.6-26.5,27c-13.2,11.9-26.4,23.7-39.4,35.7c-1.6,1.5-2.6,3.7-3.9,5.6
			c2.1-0.1,4.3,0.2,6.4-0.3c8.4-1.8,16.9-3.7,25.2-5.7c17-4.1,33.2-10.2,46.2-22.6c0.3-0.3,0.8-0.4,1.9-1c0,5.8,0.1,11.2,0,16.5
			c-0.1,3.1-0.7,6.2-0.7,9.3c0.1,3.7-1.6,5.5-5,6.2c-13.9,3.1-27.8,6-41.7,9.3c-13.3,3.2-26.4,6.8-39.7,10.1
			c-7.6,1.9-15.3,3.3-23.4,5.1c0.1-1.5,0.2-3.1,0.3-4.8c0.8-9.3,1.9-18.7,2.4-28c0.7-12.9,8.3-21.6,17-29.8
			c6.6-6.2,13.5-12.2,20.1-18.4c11.8-10.9,23.7-21.8,35.5-32.7c0.5-0.5,1.3-0.9,1.6-1.5c0.6-1.4,1-2.9,1.5-4.3c-1.5,0-3-0.2-4.4,0.1
			c-5.6,1.2-11.3,2.5-16.9,3.9C613.2,86.9,595.1,92.6,579.3,106.1z"/>
		<path class="st1" d="M796.9,72.2c-12-1.6-24,1-36,1.9c-12.2,0.9-23.8,4.5-35.7,11.2c1.3-3.7,2.2-6.2,3-8.7c1.5-4.5,3-9,4.5-13.6
			c0.8-2.6,2.4-3.7,5.3-3.8c25.5-0.8,50.9-1.8,76.4-2.7c4.8-0.2,9.5-0.5,14.3-0.6c2.1-0.1,4.3,0.4,3.3,3.2
			c-3.2,9.2-5.9,18.7-10.2,27.5c-5.8,12-16.7,19.1-27.8,25.8c-16.7,10-33.4,20-50.1,30.1c-2.6,1.5-4.9,3.5-7,6
			c26.4-0.1,53,2.4,77.8-13.5c-2.3,9.3-4,17.4-6.3,25.3c-0.4,1.3-2.8,2.5-4.4,2.7c-3.8,0.4-7.7,0.2-11.6,0.3
			c-26.8,0.9-53.6,1.9-80.3,2.8c-6.5,0.2-7-0.3-5.2-6.5c2.6-9.2,5-18.4,8.5-27.2c3.2-8,10.3-12.9,17.5-17.4
			c19.6-12.1,39.3-24,59-36.1c2.1-1.3,3.8-3.2,5.7-4.8C797.2,73.4,797.1,72.8,796.9,72.2z"/>
		<path class="st1" d="M496.3,110c-0.1-6,0.7-6.8,6.4-8.7c7.6-2.5,15.1-5.3,22.6-8c3.1-1.1,4.7-0.6,4.9,3.1
			c1.1,21.1,2.2,42.2,3.5,63.2c1,16,2.4,32,3.6,48c0.2,3-0.3,5.3-3.4,6.4c-8.8,3.1-17.6,6.4-26.4,9.5c-2.7,1-3.2-0.8-3.3-3.1
			c-1-16.2-2.1-32.3-3.3-48.5c-1.5-19.7-3.1-39.4-4.7-59.1C496.2,111.8,496.3,110.9,496.3,110z"/>
	</g>
</g>
<g id="Layer_1">
	<g>
		<path class="st4" d="M537.6,71.1c2.1,1.3,5.3,1.2,6.1,4.5c0.1,0.4,0.9,0.7,1.4,1c0.9,0.5,1.5,1.2,1.5,2.2c0,1.1,0.8,1.5,1.4,2.2
			c2,2.2,2.2,5.2,2.9,8c0.7,3-0.9,5.6-1.7,8.3c-0.7,2.4-4.2,2.5-4.8,5.1c-0.1,0.4-0.9,0.9-1.4,1c-1.8,0-3,1.2-4.4,1.8
			c-2,0.9-4.1,1.7-6.2,2c-3.4,0.5-6.5,1.5-9.4,3.5c-0.6,0.4-1.2,0.9-1.9,0.9c-2.5,0.3-3.9,3-6.5,2.9c-2,3.2-6.1,3-8.8,5.3
			c-2.4,2.2-6,2.8-8.1,5.5c-0.3,0.4-1,0.7-1.5,0.9c-3.4,1.9-7.2,3.3-10.4,5.5c-0.5,0.4-1.4,0.6-2,0.5c-4.3-0.9-9.3-0.2-11.6-5.3
			c-0.2-0.4-0.9-0.7-1.4-1c-0.8-0.5-1.6-1.1-1.8-2c-0.5-2.4-3.6-4-2.2-7c0.1-0.2-0.5-0.8-0.7-1.2c-1.4-2.5-1.2-6.1,0.5-8.4
			c0.5-0.7,1-1.5,1.6-2.4c-0.8-0.7-1.5-1.3-2.4-2c-0.3,0.5-0.4,0.8-0.5,1.2c-1.6,6.1-3.8,11.8-9,15.9c-1.8,1.4-2.4,3.4-2.4,5.6
			c-0.1,4.4-1.4,8.5-2.9,12.6c-1.1,3.1-2.2,6.2-3.3,9.3c-0.6,1.5-1,2.9,1.2,3.4c0.4,0.1,0.9,0.7,0.9,1c0,2,1.6,1.9,2.8,2.5
			c1.9,0.9,3.4,2.5,3.1,4.7c-0.2,1.7,0.5,2.5,1.5,3.5c1.6,1.6,2.3,3.6,1.4,5.8c-0.6,1.3-0.7,2.3,0.1,3.5c1,1.7,0.5,3.4-0.6,4.9
			c-1.2,1.6-2.9,2-4.7,2.7c-1.7,0.7-2.3,3.1-4.4,3.8c-1.8,0.5-3.6-0.8-5.1-0.4c-1.7,0.4-3.3,2.2-5.1,1.7c-3.3-1-6.8-1.5-9.9-2.6
			c-2.6-0.9-4.4-3.8-6-6c-1.4-1.9-1.4-4.8-2.7-7.1c-1.4-2.5,2.5-4.7,1.5-7.7c-0.3-0.8,0.9-1.8,1.8-2.4c1.3-0.8,2.8-1.1,4.1-1.7
			c1.1-0.5,1.2-2.5,2.4-3.7c1.8-1.9,4.1-1.2,6.2-1.5c-0.1-0.8-0.1-1.5-0.2-2.2c-0.7-9.1-1.6-18.2-2.2-27.3
			c-0.9-12.9-1.2-25.8,0.5-38.6c1.2-9.1,3.7-17.9,8.5-25.9c5.1-8.3,11.9-14.6,21.3-18c8.6-3.1,17.4-3.6,26.3-2.1
			c13.9,2.4,25.7,8.7,34.6,19.8c3.3,4.1,5.7,8.8,8.1,14C534.4,71.3,536,70.1,537.6,71.1z M444,149.5c1,0,1-0.8,1.2-1.5
			c1.3-5.2,3.4-10.2,5.2-15.3c0.7-2,1.1-4.1,1.2-6.2c0.2-3.8,1.7-7,4.6-9.6c5.5-4.8,7.7-11.1,7.1-18c-0.6-8.1,2.8-14,8.3-19.2
			c0.9-0.8,1.9-1.4,2.9-2c0.6-0.3,1.4-0.6,1.9,0.1c0.5,0.8-0.1,1.3-0.8,1.7c-3.8,2.1-6,5.5-8.2,9c-1.4,2.2-2,4.7-2.1,7.3
			c-0.1,3.9,2,6.5,5.1,8.1c2.3,1.2,5.1,0.5,7.5-0.2c2.8-0.8,5.3-2.1,8.3-2.3c2.1-0.1,3.8-1.6,5.7-2.3c2.9-1,5.8-2.1,8.8-3.2
			c1.9-0.7,4-1.6,5.5-2.9c1.9-1.8,4.3-3,6.4-3.9c3.8-1.7,6.6-4.5,10-6.7c0.8-0.6,1.8-1.4,2-2.8c0.2-1.7,1.3-2.6,2.9-3.2
			c3.3-1.2,3.9-2.8,2.4-5.9c-9.7-20.6-26.3-30.7-48.6-31.4c-20.2-0.6-36.1,11.5-42.2,30.8c-3.2,10.2-4,20.7-4.2,31.3
			c-0.3,14.7,1.2,29.3,2.5,43.9c0.1,1.6,0.3,3.3,0.5,5.1C440.2,150.9,442,149.5,444,149.5z M538.7,74.4c-0.5,0.2-1.2,0.1-1.5-0.5
			c-1-1.9-2.4-1.1-3,0c-0.9,1.7-3.6,1.8-3.5,4.4c0,0.6-1.2,0.4-1.9,0.2c-1.7-0.3-2.4,0.4-2.1,2.2c0.1,0.7,0.4,2,0.1,1.9
			c-2.1-0.5-1.3,2.8-3.2,2.3c-0.6-0.1-1.6,0.2-1.5,0.6c0.2,2.9-2.1,2.2-3.6,2.7c-0.4,0.1-1,0.5-1.1,0.8c-0.3,2.1-1.6,1.9-3.1,1.7
			c-0.4,0-1.2,0.3-1.2,0.5c0.1,2.5-1.6,2-3.1,2c-0.2,0-0.6,0-0.7,0.1c-1.5,2.2-4.2,2.7-6.1,4.3c-0.4,0.4-0.7,0.9-1.4,0.8
			c-1.7-0.3-3.2-0.3-4.1,1.7c-0.3,0.6-1,0.2-1.6,0.1c-1.3-0.2-2.6-0.2-3,1.5c0,0.2-0.4,0.5-0.4,0.5c-3-1.6-4.7,3.4-7.8,1.5
			c-0.5-0.3-1.3,0.2-1.6,1c-0.2,0.5-0.5,0.9-1,0.7c-1.7-0.6-3.2-0.9-3.7,1.4c0,0.1-0.2,0.2-0.3,0.2c-1.3,0.1-2.3-1.2-3.7-0.8
			c-1,0.3-1.5,2.3-3.1,0.7c-0.8-0.8-1.8-0.6-2.3,0.5c-0.6,1.3-3.1,1.6-1.8,4c0.7,1.2-1,3.2,1.1,4.2c0.4,0.2,0.8,0.8,0.5,1.2
			c-1.2,1.9,0,3,1,4.5c0.9,1.5,1.1,3.3,3.1,3.8c0.7,0.2,1.1,0.8,1.3,1.5c0.3,1.6,1.4,2.1,2.9,1.8c0.7-0.1,1.2,0,1.4,0.6
			c0.4,1,1.1,1.1,2,0.7c0.7-0.3,1.3-0.3,2,0.2c0.6,0.5,1.5,0.7,1.9,0.1c1.7-2.6,5.3-1.8,7-4.1c0.5-0.7,1.2-0.6,1.9-0.7
			c1.8-0.4,3.3-1.2,3.9-3.1c0.1-0.3,0.3-0.8,0.5-0.9c2.3-0.1,3.8-1.7,5.6-2.8c1.2-0.7,2.7-1,3.7-2.3c0.5-0.6,1.1-0.8,1.9-0.8
			c0.5,0,0.9-0.2,1.4-0.3c1.8-0.2,1.8-2.6,3.2-2.9c1.5-0.3,3,0,3.9-1.7c0.3-0.6,0.8-0.9,1.4-0.8c1.9,0.2,3.4-0.5,4.4-2.2
			c0.4-0.7,1-0.9,1.8-0.8c1.2,0.2,2.3,0.1,2.9-1.2c0.4-0.8,1.3-0.9,2.1-0.5c1.4,0.6,2.8,0.4,3.8-0.9c0.4-0.5,0.8-0.8,1.5-0.6
			c1.6,0.7,2.7-0.4,3.7-1.3c0.4-0.4,0.8-1,1.4-0.8c2,0.6,2.8-0.5,3.1-2.2c0.2-0.9,0.8-1.3,1.8-1.3c1.4-0.1,2.1-0.9,1.8-2.4
			c-0.1-0.4,0-1.2,0.2-1.3c1.9-1,0.9-2.6,1.1-3.9c0.4-1.7,0.3-3-1.1-4c-0.5-0.4-0.6-1-0.4-1.6c0.1-0.4,0.5-1.1,0.1-1.3
			c-2.5-1.2-2.4-4.5-4.7-5.8c-0.6-0.3-1.4-0.5-1.3-1.4C541,74.6,540.5,73.7,538.7,74.4z M444.1,152.1c-0.3-0.6-1-0.7-1.4-0.1
			c-0.7,0.9-1.6,0.6-2.6,0.5c-0.7-0.1-1.7-0.3-1.8,0.5c-0.5,2.3-1.8,1.7-3.4,1.3c-3.1-0.8-4.9,0.5-4.9,3.6c0,2-0.7,2.1-2.3,1.7
			c-1.4-0.3-2.8,0-3.8,1.3c-0.6,0.8-1.1,1.7-0.3,2.5c1.3,1.3,1,1.9-0.4,2.9c-2.1,1.5-1.9,2.7,0.6,3.7c1.1,0.5,1.3,0.9,0.9,2.1
			c-1.1,3-0.9,3.2,1.8,4.4c0.7,0.3,1.2,0.6,1.4,1.4c0.2,0.9-0.1,1.9,1,2.4c1,0.5,2,0.7,3.1,0.5c1.8-0.4,3.2-0.2,4.6,1.2
			c1.6,1.5,3.7,1.3,5.3-0.5c1.2-1.4,1.8-2,3.5-0.5c1.7,1.5,3.7,0.7,5.1-1.8c0.7-1.3,1.2-2,3.1-2c2.8,0.1,4.1-2.9,2.6-5.3
			c-0.8-1.4-1.2-2.1,0.1-3.5c1.3-1.5,0.6-3.7-1.6-4.9c-1.6-0.9-1.9-1.6-1.4-3.3c0.6-2.1-0.5-3.7-2.5-4.2c-1-0.2-2.3,0.7-2.9-0.5
			c-0.4-0.8-0.1-1.8-0.1-3.1C446.3,152.5,445,153.8,444.1,152.1z"/>
		<path class="st5" d="M529.9,70.7c1.4,3,0.8,4.6-2.4,5.9c-1.6,0.6-2.7,1.5-2.9,3.2c-0.1,1.3-1.1,2.2-2,2.8c-3.4,2.2-6.2,5-10,6.7
			c-2.1,1-4.5,2.2-6.4,3.9c-1.5,1.4-3.6,2.2-5.5,2.9c-2.9,1.1-5.8,2.2-8.8,3.2c-2,0.7-3.7,2.2-5.7,2.3c-3,0.2-5.6,1.5-8.3,2.3
			c-2.4,0.7-5.2,1.4-7.5,0.2c-3.1-1.6-5.3-4.2-5.1-8.1c0.1-2.6,0.7-5.1,2.1-7.3c2.2-3.5,4.4-7,8.2-9c0.6-0.3,1.3-0.9,0.8-1.7
			c-0.5-0.7-1.2-0.4-1.9-0.1c-1,0.5-2,1.1-2.9,2c-5.4,5.3-8.9,11.1-8.3,19.2c0.5,6.8-1.7,13.2-7.1,18c-2.9,2.5-4.4,5.7-4.6,9.6
			c-0.1,2.1-0.5,4.2-1.2,6.2c-1.8,5.1-3.8,10.1-5.2,15.3c-0.2,0.6-0.2,1.5-1.2,1.5c-2,0-3.8,1.4-6.1,0.8c-0.2-1.8-0.4-3.4-0.5-5.1
			c-1.3-14.6-2.7-29.2-2.5-43.9c0.2-10.6,1-21.1,4.2-31.3c6.1-19.3,21.9-31.4,42.2-30.8C503.6,39.9,520.2,50.1,529.9,70.7z"/>
		<path class="st6" d="M547.2,84.6c-0.2,0.6-0.1,1.2,0.4,1.6c1.4,1.1,1.5,2.3,1.1,4c-0.3,1.3,0.8,3-1.1,3.9
			c-0.2,0.1-0.3,0.9-0.2,1.3c0.3,1.5-0.4,2.3-1.8,2.4c-1,0.1-1.6,0.4-1.8,1.3c-0.3,1.8-1.1,2.8-3.1,2.2c-0.6-0.2-1,0.5-1.4,0.8
			c-1,0.9-2.1,2-3.7,1.3c-0.6-0.3-1.1,0.1-1.5,0.6c-1,1.3-2.4,1.5-3.8,0.9c-0.9-0.4-1.7-0.3-2.1,0.5c-0.7,1.3-1.7,1.4-2.9,1.2
			c-0.7-0.1-1.4,0.1-1.8,0.8c-1,1.7-2.5,2.4-4.4,2.2c-0.7-0.1-1.2,0.3-1.4,0.8c-0.8,1.7-2.4,1.4-3.9,1.7c-1.3,0.3-1.4,2.6-3.2,2.9
			c-0.5,0.1-0.9,0.3-1.4,0.3c-0.8,0-1.4,0.2-1.9,0.8c-1,1.2-2.5,1.5-3.7,2.3c-1.8,1-3.3,2.7-5.6,2.8c-0.2,0-0.4,0.5-0.5,0.9
			c-0.6,1.9-2.1,2.7-3.9,3.1c-0.6,0.1-1.3,0-1.9,0.7c-1.7,2.3-5.3,1.6-7,4.1c-0.4,0.6-1.3,0.4-1.9-0.1c-0.6-0.5-1.2-0.5-2-0.2
			c-0.9,0.4-1.6,0.3-2-0.7c-0.3-0.6-0.8-0.8-1.4-0.6c-1.5,0.3-2.5-0.2-2.9-1.8c-0.2-0.7-0.6-1.3-1.3-1.5c-2-0.5-2.2-2.3-3.1-3.8
			c-0.9-1.5-2.2-2.6-1-4.5c0.2-0.4-0.1-1-0.5-1.2c-2.1-1-0.4-3-1.1-4.2c-1.3-2.3,1.3-2.6,1.8-4c0.4-1.1,1.5-1.3,2.3-0.5
			c1.6,1.6,2.1-0.4,3.1-0.7c1.4-0.4,2.4,0.9,3.7,0.8c0.1,0,0.2-0.1,0.3-0.2c0.6-2.3,2-2,3.7-1.4c0.5,0.2,0.9-0.2,1-0.7
			c0.3-0.8,1.1-1.3,1.6-1c3.1,1.9,4.9-3.1,7.8-1.5c0,0,0.4-0.3,0.4-0.5c0.4-1.8,1.7-1.7,3-1.5c0.6,0.1,1.4,0.4,1.6-0.1
			c0.8-1.9,2.3-2,4.1-1.7c0.7,0.1,0.9-0.4,1.4-0.8c1.9-1.6,4.6-2.1,6.1-4.3c0.1-0.1,0.4-0.1,0.7-0.1c1.5,0,3.2,0.5,3.1-2
			c0-0.2,0.8-0.6,1.2-0.5c1.5,0.1,2.8,0.4,3.1-1.7c0-0.3,0.6-0.7,1.1-0.8c1.5-0.4,3.8,0.3,3.6-2.7c0-0.4,1-0.7,1.5-0.6
			c1.9,0.5,1.2-2.8,3.2-2.3c0.3,0.1,0-1.2-0.1-1.9c-0.3-1.7,0.4-2.5,2.1-2.2c0.7,0.1,1.9,0.4,1.9-0.2c-0.2-2.6,2.6-2.7,3.5-4.4
			c0.5-1,2-1.9,3,0c0.3,0.6,1,0.8,1.5,0.5c1.8-0.7,2.3,0.2,2.6,1.7c0,0.9,0.7,1.1,1.3,1.4c2.3,1.3,2.3,4.5,4.7,5.8
			C547.7,83.5,547.3,84.1,547.2,84.6z M450.7,156c-1-0.2-2.3,0.7-2.9-0.5c-0.4-0.8-0.1-1.8-0.1-3.1c-1.4,0.2-2.7,1.4-3.6-0.3
			c-0.3-0.6-1-0.7-1.4-0.1c-0.7,0.9-1.6,0.6-2.6,0.5c-0.7-0.1-1.7-0.3-1.8,0.5c-0.5,2.3-1.8,1.7-3.4,1.3c-3.1-0.8-4.9,0.5-4.9,3.6
			c0,2-0.7,2.1-2.3,1.7c-1.4-0.3-2.8,0-3.8,1.3c-0.6,0.8-1.1,1.7-0.3,2.5c1.3,1.3,1,1.9-0.4,2.9c-2.1,1.5-1.9,2.7,0.6,3.7
			c1.1,0.5,1.3,0.9,0.9,2.1c-1.1,3-0.9,3.2,1.8,4.4c0.7,0.3,1.2,0.6,1.4,1.4c0.2,0.9-0.1,1.9,1,2.4c1,0.5,2,0.7,3.1,0.5
			c1.8-0.4,3.2-0.2,4.6,1.2c1.6,1.5,3.7,1.3,5.3-0.5c1.2-1.4,1.8-2,3.5-0.5c1.7,1.5,3.7,0.7,5.1-1.8c0.7-1.3,1.2-2,3.1-2
			c2.8,0.1,4.1-2.9,2.6-5.3c-0.8-1.4-1.2-2.1,0.1-3.5c1.3-1.5,0.6-3.7-1.6-4.9c-1.6-0.9-1.9-1.6-1.4-3.3
			C453.8,158.2,452.7,156.5,450.7,156z"/>
	</g>
</g>
</svg>
