<svg id="Layer_1" data-name="Layer 1" xmlns="http://www.w3.org/2000/svg" viewBox="0 0 1074.27 471.16"><defs><style>.cls-1{fill:#0170a5;}.cls-2{opacity:0.15;font-size:175.63px;font-family:Mirendo;}.cls-3{fill:#1d4b70;}</style></defs><title>Logo_Site</title><path class="cls-1" d="M983.87,245.5C962.32,240,941,233.44,919.19,229.16c-35.36-6.94-70.87-8.22-107.18-5.37-105.8,8.3-201,48.94-295.71,92.11C436.41,352.32,356.61,389,276,423.72c-33.77,14.54-70.39,23.43-107.23,22.82C96.42,445.35,32.67,409.89,14.49,324.36c-12.63-59.42-2.63-118.1,18.72-175-1,8-2.24,16.08-2.87,24.16-.68,8.74-.88,17.52-1.1,26.29-1.21,48.49,2.17,96.09,33,136.63,21.78,28.66,52.41,41.25,87.54,43.78,46.18,3.32,89.45-9.41,131.4-26.34,66.85-27,133-55.76,199.66-83.12,67.47-27.69,135.65-53.7,207.67-67.07,93.36-17.33,185.22-15.74,272.78,27,8.09,3.95,15.69,8.92,23.51,13.41Z" transform="translate(-8.93 -16.02)"/><path class="cls-1" d="M150.93,487c63.79-8.67,122.07-32.29,179.44-58.38,82.2-37.38,163.29-77.31,246.26-112.88,84-36,171.34-60,264.27-55.13,3.15.16,6.31,0,9.46,1.19-24.81,3.05-49.76,5.24-74.4,9.3-73.72,12.15-143,38.23-210.55,69.22C491.78,374.11,418.93,409.63,345,442.76c-49.91,22.37-101.18,41.71-156.89,44.16C175.75,487.46,163.33,487,150.93,487Z" transform="translate(-8.93 -16.02)"/><path class="cls-1" d="M85.8,88.9c0,26.59-1.43,54.64.33,82.48,2.83,44.91,12.62,87.92,43.3,123.38,15.67,18.1,34.48,31.24,57.35,38.56,5.55,1.78,10.91,4.13,17.25,6.56-25.35,2.89-72.67-11.47-97.43-31.1-30.07-23.84-44-55.12-46-92.75-2.32-43.09,9.42-83.49,23-123.59A10.25,10.25,0,0,1,85.8,88.9Z" transform="translate(-8.93 -16.02)"/><path class="cls-1" d="M148.19,117.27c-12,53.7-16,102.47,27.15,142.57C120.92,237.22,102.87,182.15,148.19,117.27Z" transform="translate(-8.93 -16.02)"/><text class="cls-2" transform="matrix(0.93, -0.37, 0.37, 0.93, 211.25, 330.36)">B</text><text class="cls-2" transform="translate(357.91 268.37) rotate(-23.48)">R</text><text class="cls-2" transform="translate(495.42 210.41) rotate(-20)">I</text><text class="cls-2" transform="translate(573.59 181.64) rotate(-13.76)">Z</text><text class="cls-2" transform="matrix(1, -0.02, 0.02, 1, 711.06, 150.18)">Z</text><text class="cls-2" transform="translate(846.98 150.11) rotate(19.16)">O</text><path class="cls-3" d="M490.22,253.09c-7.9,5.08-15.61,6.87-23.88,7.54-18.81,1.54-33.24-7-46.11-19.33-3.22-3.09-6.21-6.43-9.16-9.78-2.05-2.32-4-2.92-6.45-.66-1,.91-2.14,1.63-3.17,2.48-5.94,4.87-10.84,9.8-7.52,18.8,1.6,4.32,1.3,9.42,1.33,14.18a5.83,5.83,0,0,1-2.62,4.45c-8.35,3.81-16.87,7.24-25.33,10.81-2.48,1.05-4.2,1.13-4.62-2.33q-2.52-20.82-5.32-41.6c-1.49-11.06-3.27-22.08-4.7-33.15-1.27-9.88-2.25-19.8-3.34-29.7-.13-1.19-.1-2.39-.21-3.57-.84-9-.72-8.71,8-12.14,10.2-4,20.12-8.69,30.22-12.94q18.24-7.68,36.6-15.1c3.83-1.55,7.86-2.65,11.78-4,12.7-4.33,19.5,1.63,22.38,12.07a58.09,58.09,0,0,1,0,30.93c-2.23,8.18-7.55,14.78-13.08,21A125.38,125.38,0,0,1,435,201.23c-2.58,2.32-2.58,4.54-.57,7,10.67,12.88,21.48,25.66,35.37,35.21,4.69,3.23,10.3,5.12,15.5,7.59C486.62,251.65,488.05,252.18,490.22,253.09ZM384.08,171.63c1.58,15.83,3.14,31.66,4.81,47.48.12,1.18.8,2.84,1.69,3.25s2.55-.39,3.35-1.18c9.67-9.69,19.5-19.22,28.75-29.29,8.22-8.95,11.08-19.44,6.72-31.37-2.21-6-9.09-10.46-14.33-8.27-9.3,3.89-18.39,8.28-27.61,12.34C384.19,166,382.78,168.12,384.08,171.63Z" transform="translate(-8.93 -16.02)"/><path class="cls-3" d="M252.72,311.13c10.62,4.38,19,.39,26.33-5.63,11.77-9.7,19.17-22.31,21-37.65.66-5.52,1.09-11.16-3.74-15.82-5.73-5.53-15.9-3.62-20.3,1-10.21,10.63-20.23,21.46-30.52,32-3.73,3.82-2.95,8.22-2.51,12.59,1.12,11.23,2.53,22.44,3.63,33.69.12,1.21-.76,3.25-1.74,3.71-7.92,3.7-15.95,7.17-24,10.6-2.88,1.22-4.65.76-5-3-1.71-17.76-3.5-35.51-5.55-53.23-2.11-18.3-4.38-36.59-6.92-54.84-1.4-10.06-.58-7.72,6.51-10.92,15.38-6.93,31.08-13.14,46.71-19.51,6.57-2.67,13.31-4.92,19.93-7.47,7.16-2.77,13.64-1.29,19,3.69,5.7,5.25,5.52,12.33,4,19.18-1.26,5.61-1,6.62,5,6.24,10.18-.65,17.93,3.22,22.24,12.36A42.83,42.83,0,0,1,330.59,253c2,27.94-12.4,47.17-34.35,61.73a42.7,42.7,0,0,1-28.09,6.85c-5.86-.54-10.6-2.8-14.21-7.36A11.86,11.86,0,0,1,252.72,311.13Zm-16.14-74.85c.69,9.62,1.2,17.49,1.89,25.34.1,1.15,1,3,1.72,3.13a5.17,5.17,0,0,0,3.84-1.33,69.73,69.73,0,0,0,6.86-7.61c6.54-8.46,13.19-16.85,19.25-25.66,1.39-2,1.47-6,.43-8.24-.58-1.28-5-1.92-7.13-1.2-7.26,2.45-14.27,5.65-21.38,8.54C238.08,230.87,236.24,233.73,236.58,236.28Z" transform="translate(-8.93 -16.02)"/><path class="cls-3" d="M916.77,190.41c-21.81-1.07-41.8-6.15-56.08-24-11.32-14.18-13.79-30.3-8.51-47.54C858.87,97,874,82.52,894.32,73.67c17.62-7.67,36.16-8.72,55-4.37,14.44,3.33,26.95,9.68,37.31,20.43a46.65,46.65,0,0,1,13.24,29.51c.38,5-.93,10.34-2.23,15.33-4.73,18.21-16.12,31.69-31.51,41.79C951.21,186.17,934.31,189.76,916.77,190.41Zm49.57-80.92c.41-19.23-10.56-25.62-21.34-25.27a55.36,55.36,0,0,0-22.57,6c-23,11.27-40.72,37.44-37.69,64.55.92,8.28,4.63,15.41,12.81,19.12,9.13,4.14,17.81,1.29,26.18-2.34,11.88-5.16,20-15,27.69-24.74A72.87,72.87,0,0,0,966.34,109.49Z" transform="translate(-8.93 -16.02)"/><path class="cls-3" d="M579.3,106.06c.17-2.58.21-4.31.41-6,.77-6.5,1.75-13,2.33-19.49.27-3,1.24-4.33,4.36-5C596.66,73.23,606.8,70.41,617,68c9-2.13,18-3.92,27-6,10.12-2.39,20.19-5,30.28-7.47,4.26-1,8.53-2,13.24-3.18a5.85,5.85,0,0,1,.51,2.22c-1,9.32-1.1,18.88-3.35,27.89C682.79,88.85,679,96,675,102.69c-6.65,11-17.08,18.55-26.48,27-13.18,11.85-26.35,23.7-39.42,35.68-1.63,1.48-2.59,3.69-3.86,5.57a37.54,37.54,0,0,0,6.38-.28Q624.23,168,636.82,165c17-4.13,33.18-10.18,46.21-22.59a12,12,0,0,1,1.88-1c0,5.78.08,11.15,0,16.52-.07,3.12-.72,6.23-.66,9.33.08,3.67-1.58,5.46-5,6.22-13.91,3.05-27.85,6-41.7,9.33-13.28,3.18-26.43,6.85-39.69,10.1-7.59,1.87-15.28,3.33-23.36,5.07.1-1.46.19-3.13.34-4.79.82-9.34,1.89-18.67,2.42-28,.73-12.86,8.33-21.64,17-29.81,6.62-6.22,13.45-12.21,20.14-18.36q17.76-16.32,35.48-32.71c.54-.5,1.31-.9,1.6-1.52.64-1.38,1-2.86,1.54-4.3a22.54,22.54,0,0,0-4.43.08c-5.64,1.2-11.26,2.51-16.86,3.87C613.15,86.86,595.14,92.58,579.3,106.06Z" transform="translate(-8.93 -16.02)"/><path class="cls-3" d="M796.9,72.21c-12-1.59-24,1-36,1.88A83.82,83.82,0,0,0,725.2,85.28c1.26-3.66,2.15-6.19,3-8.73,1.5-4.52,3-9,4.45-13.57.83-2.63,2.42-3.73,5.25-3.82,25.46-.84,50.9-1.8,76.35-2.74,4.77-.18,9.53-.47,14.3-.61,2.1-.06,4.3.36,3.3,3.24-3.24,9.23-5.94,18.75-10.18,27.51-5.79,12-16.71,19.13-27.78,25.78q-25,15-50.06,30.06a27.55,27.55,0,0,0-7,6c26.38-.11,53,2.44,77.82-13.55-2.27,9.33-4,17.37-6.31,25.26-.36,1.27-2.8,2.54-4.41,2.72-3.83.44-7.74.18-11.62.31-26.78.93-53.56,1.94-80.34,2.8-6.52.21-7-.32-5.22-6.51,2.59-9.15,5-18.44,8.53-27.22,3.23-8,10.33-12.95,17.49-17.36,19.63-12.07,39.34-24,59-36.06A49,49,0,0,0,797.37,74C797.21,73.41,797.05,72.81,796.9,72.21Z" transform="translate(-8.93 -16.02)"/><path class="cls-3" d="M496.29,110c-.15-6,.66-6.83,6.4-8.74,7.59-2.53,15.1-5.3,22.62-8,3.11-1.13,4.7-.62,4.89,3.12,1.07,21.09,2.17,42.18,3.5,63.25,1,16,2.35,32,3.65,48,.24,3-.29,5.26-3.41,6.38-8.8,3.14-17.56,6.4-26.38,9.49-2.74,1-3.19-.84-3.34-3.13-1-16.17-2.06-32.35-3.26-48.51-1.47-19.71-3.11-39.42-4.66-59.13C496.23,111.76,496.29,110.86,496.29,110Z" transform="translate(-8.93 -16.02)"/></svg>